<?xml version="1.0" encoding="utf-8"?>
<!-- Generator: Adobe Illustrator 25.4.1, SVG Export Plug-In . SVG Version: 6.00 Build 0)  -->
<svg version="1.1" id="Layer_1" xmlns="http://www.w3.org/2000/svg" xmlns:xlink="http://www.w3.org/1999/xlink" x="0px" y="0px"
	 viewBox="0 0 600 250" style="enable-background:new 0 0 600 250;" xml:space="preserve">
<style type="text/css">
	.st0{fill:#FFFFFF;stroke:#FFFFFF;stroke-width:15;stroke-miterlimit:10;}
</style>
<path class="st0" d="M15.17,127.83c-1.24,0-2.49-0.46-3.46-1.39c-2-1.91-2.07-5.07-0.16-7.07l87.33-91.33
	c1.91-2,5.07-2.07,7.07-0.16c2,1.91,2.07,5.07,0.16,7.07l-87.33,91.33C17.8,127.31,16.49,127.83,15.17,127.83z"/>
<path class="st0" d="M136.75,218.99c-2.76,0-5-2.24-5-5V33.78c0-2.76,2.24-5,5-5s5,2.24,5,5v180.2
	C141.75,216.75,139.51,218.99,136.75,218.99z"/>
<path class="st0" d="M208.66,218.14c-1.98,0-3.86-1.19-4.64-3.14L132.96,38.19c-1.03-2.56,0.21-5.47,2.77-6.5
	c2.56-1.03,5.47,0.21,6.5,2.77l71.07,176.82c1.03,2.56-0.21,5.47-2.77,6.5C209.92,218.03,209.28,218.14,208.66,218.14z"/>
<path class="st0" d="M209.51,220.68c-2.76,0-5-2.24-5-5V35.48c0-2.76,2.24-5,5-5s5,2.24,5,5v180.2
	C214.51,218.44,212.27,220.68,209.51,220.68z"/>
<path class="st0" d="M271.34,131h-60.57c-2.64,0-4.77-2.24-4.77-5s2.14-5,4.77-5h60.57c2.64,0,4.77,2.24,4.77,5
	S273.98,131,271.34,131z"/>
<path class="st0" d="M272.11,219.83c-2.76,0-5-2.24-5-5V34.63c0-2.76,2.24-5,5-5s5,2.24,5,5v180.2
	C277.11,217.59,274.88,219.83,272.11,219.83z"/>
<path class="st0" d="M376.72,224.33c-0.7,0-1.42-0.15-2.09-0.47c-2.48-1.18-3.56-4.18-2.4-6.7l87.31-190.25
	c1.16-2.52,4.11-3.61,6.59-2.44c2.48,1.18,3.56,4.18,2.4,6.7l-87.31,190.25C380.38,223.26,378.59,224.33,376.72,224.33z"/>
<path class="st0" d="M102.88,219.68c-1.32,0-2.63-0.52-3.61-1.54l-87.33-91.33c-1.91-2-1.84-5.16,0.16-7.07
	c2-1.91,5.16-1.84,7.07,0.16l87.33,91.33c1.91,2,1.84,5.16-0.16,7.07C105.37,219.22,104.12,219.68,102.88,219.68z"/>
<path class="st0" d="M583.91,130.76c1.24,0,2.49-0.46,3.46-1.39c2-1.91,2.07-5.07,0.16-7.07l-87.33-91.33
	c-1.91-2-5.07-2.07-7.07-0.16c-2,1.91-2.07,5.07-0.16,7.07l87.33,91.33C581.28,130.24,582.59,130.76,583.91,130.76z"/>
<path class="st0" d="M496.2,222.61c1.32,0,2.63-0.52,3.61-1.54l87.33-91.33c1.91-2,1.84-5.16-0.16-7.07c-2-1.91-5.16-1.84-7.07,0.16
	l-87.33,91.33c-1.91,2-1.84,5.16,0.16,7.07C493.71,222.15,494.96,222.61,496.2,222.61z"/>
</svg>
